<?xml version="1.0" encoding="UTF-8" standalone="no"?>
<!DOCTYPE svg PUBLIC "-//W3C//DTD SVG 1.1//EN"
 "http://www.w3.org/Graphics/SVG/1.1/DTD/svg11.dtd">
<!-- Generated by graphviz version 2.43.0 (0)
 -->
<!-- Title: pastafarianism Pages: 1 -->
<svg width="1666pt" height="116pt"
 viewBox="0.00 0.00 1665.80 116.00" xmlns="http://www.w3.org/2000/svg" xmlns:xlink="http://www.w3.org/1999/xlink">
<g id="graph0" class="graph" transform="scale(1 1) rotate(0) translate(4 112)">
<title>pastafarianism</title>
<polygon fill="white" stroke="transparent" points="-4,4 -4,-112 1661.8,-112 1661.8,4 -4,4"/>
<!-- Life -->
<g id="node1" class="node">
<title>Life</title>
<polygon fill="orange" stroke="black" points="913.99,-108 859.99,-108 859.99,-72 913.99,-72 913.99,-108"/>
<text text-anchor="middle" x="886.99" y="-87.8" font-family="Times,serif" font-size="9.00">Ⓜ Life</text>
</g>
<!-- scan_object -->
<g id="node2" class="node">
<title>scan_object</title>
<ellipse fill="gray" stroke="black" cx="40.99" cy="-18" rx="40.98" ry="18"/>
<text text-anchor="middle" x="40.99" y="-15.8" font-family="Times,serif" font-size="9.00">scan_object</text>
</g>
<!-- Life&#45;&gt;scan_object -->
<g id="edge1" class="edge">
<title>Life&#45;&gt;scan_object</title>
<path fill="none" stroke="black" d="M859.92,-88.15C738.46,-84.17 243.11,-66.38 90.99,-36 87.56,-35.31 84.04,-34.46 80.54,-33.49"/>
<polygon fill="black" stroke="black" points="81.37,-30.09 70.79,-30.55 79.35,-36.79 81.37,-30.09"/>
</g>
<!-- face_object -->
<g id="node3" class="node">
<title>face_object</title>
<ellipse fill="gray" stroke="black" cx="138.99" cy="-18" rx="39.02" ry="18"/>
<text text-anchor="middle" x="138.99" y="-15.8" font-family="Times,serif" font-size="9.00">face_object</text>
</g>
<!-- Life&#45;&gt;face_object -->
<g id="edge2" class="edge">
<title>Life&#45;&gt;face_object</title>
<path fill="none" stroke="black" d="M859.93,-89.5C765.82,-90.72 444.57,-90.36 186.99,-36 183.79,-35.32 180.51,-34.49 177.25,-33.55"/>
<polygon fill="black" stroke="black" points="178.16,-30.17 167.57,-30.51 176.06,-36.85 178.16,-30.17"/>
</g>
<!-- approach_base_aruco_box -->
<g id="node4" class="node">
<title>approach_base_aruco_box</title>
<ellipse fill="gray" stroke="black" cx="274.99" cy="-18" rx="79.19" ry="18"/>
<text text-anchor="middle" x="274.99" y="-15.8" font-family="Times,serif" font-size="9.00">approach_base_aruco_box</text>
</g>
<!-- Life&#45;&gt;approach_base_aruco_box -->
<g id="edge3" class="edge">
<title>Life&#45;&gt;approach_base_aruco_box</title>
<path fill="none" stroke="black" d="M859.89,-87.12C782.22,-81.56 552.29,-63.8 362.99,-36 356.17,-35 349.06,-33.83 341.99,-32.59"/>
<polygon fill="black" stroke="black" points="342.13,-29.06 331.67,-30.73 340.89,-35.95 342.13,-29.06"/>
</g>
<!-- scan_object_again -->
<g id="node5" class="node">
<title>scan_object_again</title>
<ellipse fill="gray" stroke="black" cx="429.99" cy="-18" rx="58.13" ry="18"/>
<text text-anchor="middle" x="429.99" y="-15.8" font-family="Times,serif" font-size="9.00">scan_object_again</text>
</g>
<!-- Life&#45;&gt;scan_object_again -->
<g id="edge4" class="edge">
<title>Life&#45;&gt;scan_object_again</title>
<path fill="none" stroke="black" d="M859.87,-86.38C796.16,-80.01 632.15,-62.24 496.99,-36 492.24,-35.08 487.31,-34.02 482.39,-32.9"/>
<polygon fill="black" stroke="black" points="482.9,-29.42 472.36,-30.52 481.28,-36.23 482.9,-29.42"/>
</g>
<!-- approach_aruco_box -->
<g id="node6" class="node">
<title>approach_aruco_box</title>
<ellipse fill="gray" stroke="black" cx="570.99" cy="-18" rx="64.83" ry="18"/>
<text text-anchor="middle" x="570.99" y="-15.8" font-family="Times,serif" font-size="9.00">approach_aruco_box</text>
</g>
<!-- Life&#45;&gt;approach_aruco_box -->
<g id="edge5" class="edge">
<title>Life&#45;&gt;approach_aruco_box</title>
<path fill="none" stroke="black" d="M859.75,-83.13C814.93,-73.45 722.84,-53.47 644.99,-36 639.77,-34.83 634.34,-33.6 628.9,-32.36"/>
<polygon fill="black" stroke="black" points="629.67,-28.95 619.14,-30.14 628.11,-35.77 629.67,-28.95"/>
</g>
<!-- lower_aruco_box -->
<g id="node7" class="node">
<title>lower_aruco_box</title>
<ellipse fill="gray" stroke="black" cx="707.99" cy="-18" rx="54.04" ry="18"/>
<text text-anchor="middle" x="707.99" y="-15.8" font-family="Times,serif" font-size="9.00">lower_aruco_box</text>
</g>
<!-- Life&#45;&gt;lower_aruco_box -->
<g id="edge6" class="edge">
<title>Life&#45;&gt;lower_aruco_box</title>
<path fill="none" stroke="black" d="M859.81,-78.37C831.05,-67.12 785.27,-49.22 751.49,-36.01"/>
<polygon fill="black" stroke="black" points="752.45,-32.63 741.87,-32.25 749.9,-39.15 752.45,-32.63"/>
</g>
<!-- enable_suction -->
<g id="node8" class="node">
<title>enable_suction</title>
<ellipse fill="gray" stroke="black" cx="829.99" cy="-18" rx="49.8" ry="18"/>
<text text-anchor="middle" x="829.99" y="-15.8" font-family="Times,serif" font-size="9.00">enable_suction</text>
</g>
<!-- Life&#45;&gt;enable_suction -->
<g id="edge7" class="edge">
<title>Life&#45;&gt;enable_suction</title>
<path fill="none" stroke="black" d="M872.9,-71.7C865.97,-63.18 857.49,-52.76 849.9,-43.45"/>
<polygon fill="black" stroke="black" points="852.56,-41.17 843.53,-35.62 847.13,-45.59 852.56,-41.17"/>
</g>
<!-- pickup_object -->
<g id="node9" class="node">
<title>pickup_object</title>
<ellipse fill="gray" stroke="black" cx="943.99" cy="-18" rx="46.53" ry="18"/>
<text text-anchor="middle" x="943.99" y="-15.8" font-family="Times,serif" font-size="9.00">pickup_object</text>
</g>
<!-- Life&#45;&gt;pickup_object -->
<g id="edge8" class="edge">
<title>Life&#45;&gt;pickup_object</title>
<path fill="none" stroke="black" d="M901.08,-71.7C908.02,-63.18 916.5,-52.76 924.08,-43.45"/>
<polygon fill="black" stroke="black" points="926.86,-45.59 930.46,-35.62 921.43,-41.17 926.86,-45.59"/>
</g>
<!-- handle_object -->
<g id="node10" class="node">
<title>handle_object</title>
<ellipse fill="gray" stroke="black" cx="1055.99" cy="-18" rx="46.53" ry="18"/>
<text text-anchor="middle" x="1055.99" y="-15.8" font-family="Times,serif" font-size="9.00">handle_object</text>
</g>
<!-- Life&#45;&gt;handle_object -->
<g id="edge9" class="edge">
<title>Life&#45;&gt;handle_object</title>
<path fill="none" stroke="black" d="M914.14,-77.75C941.71,-66.34 984.69,-48.53 1016.12,-35.51"/>
<polygon fill="black" stroke="black" points="1017.58,-38.7 1025.48,-31.64 1014.9,-32.23 1017.58,-38.7"/>
</g>
<!-- approach_goal -->
<g id="node11" class="node">
<title>approach_goal</title>
<ellipse fill="gray" stroke="black" cx="1168.99" cy="-18" rx="48.49" ry="18"/>
<text text-anchor="middle" x="1168.99" y="-15.8" font-family="Times,serif" font-size="9.00">approach_goal</text>
</g>
<!-- Life&#45;&gt;approach_goal -->
<g id="edge10" class="edge">
<title>Life&#45;&gt;approach_goal</title>
<path fill="none" stroke="black" d="M914.13,-83.14C956.55,-73.87 1041.03,-54.92 1111.99,-36 1115.6,-35.04 1119.32,-34.01 1123.05,-32.95"/>
<polygon fill="black" stroke="black" points="1124.26,-36.25 1132.9,-30.11 1122.32,-29.52 1124.26,-36.25"/>
</g>
<!-- return_object -->
<g id="node12" class="node">
<title>return_object</title>
<ellipse fill="gray" stroke="black" cx="1281.99" cy="-18" rx="46.38" ry="18"/>
<text text-anchor="middle" x="1281.99" y="-15.8" font-family="Times,serif" font-size="9.00">return_object</text>
</g>
<!-- Life&#45;&gt;return_object -->
<g id="edge11" class="edge">
<title>Life&#45;&gt;return_object</title>
<path fill="none" stroke="black" d="M914.04,-86.07C971.81,-79.54 1111.31,-62.24 1225.99,-36 1229.89,-35.11 1233.92,-34.09 1237.94,-33"/>
<polygon fill="black" stroke="black" points="1239.17,-36.29 1247.84,-30.19 1237.27,-29.55 1239.17,-36.29"/>
</g>
<!-- ee_drop_object -->
<g id="node13" class="node">
<title>ee_drop_object</title>
<ellipse fill="gray" stroke="black" cx="1395.99" cy="-18" rx="49.8" ry="18"/>
<text text-anchor="middle" x="1395.99" y="-15.8" font-family="Times,serif" font-size="9.00">ee_drop_object</text>
</g>
<!-- Life&#45;&gt;ee_drop_object -->
<g id="edge12" class="edge">
<title>Life&#45;&gt;ee_drop_object</title>
<path fill="none" stroke="black" d="M914.12,-87.36C984.5,-82.75 1178.52,-67.94 1336.99,-36 1341.17,-35.16 1345.47,-34.17 1349.77,-33.09"/>
<polygon fill="black" stroke="black" points="1350.94,-36.4 1359.71,-30.46 1349.15,-29.63 1350.94,-36.4"/>
</g>
<!-- retract_ee -->
<g id="node14" class="node">
<title>retract_ee</title>
<ellipse fill="gray" stroke="black" cx="1500.99" cy="-18" rx="36.9" ry="18"/>
<text text-anchor="middle" x="1500.99" y="-15.8" font-family="Times,serif" font-size="9.00">retract_ee</text>
</g>
<!-- Life&#45;&gt;retract_ee -->
<g id="edge13" class="edge">
<title>Life&#45;&gt;retract_ee</title>
<path fill="none" stroke="black" d="M914,-88.96C996.29,-88.32 1250.73,-82.43 1454.99,-36 1457.97,-35.32 1461.01,-34.5 1464.05,-33.59"/>
<polygon fill="black" stroke="black" points="1465.21,-36.89 1473.62,-30.44 1463.02,-30.25 1465.21,-36.89"/>
</g>
<!-- disable_suction -->
<g id="node15" class="node">
<title>disable_suction</title>
<ellipse fill="gray" stroke="black" cx="1606.99" cy="-18" rx="50.61" ry="18"/>
<text text-anchor="middle" x="1606.99" y="-15.8" font-family="Times,serif" font-size="9.00">disable_suction</text>
</g>
<!-- Life&#45;&gt;disable_suction -->
<g id="edge14" class="edge">
<title>Life&#45;&gt;disable_suction</title>
<path fill="none" stroke="black" d="M914.27,-88.72C1004.95,-87.37 1304.32,-79.69 1546.99,-36 1551.43,-35.2 1556.01,-34.21 1560.57,-33.12"/>
<polygon fill="black" stroke="black" points="1561.63,-36.46 1570.45,-30.58 1559.89,-29.68 1561.63,-36.46"/>
</g>
</g>
</svg>
